<svg xmlns="http://www.w3.org/2000/svg" viewBox="0 0 380 124" role="img" aria-labelledby="title desc">
  <title id="title">Corpoyarumos</title>
  <desc id="desc">Símbolo del mockup aprobado y wordmark Corpoyarumos.</desc>
  <path fill="#E8B719" d="M50 58L51 59L60 60L68 65L73 65L74 64L84 64L86 65L87 64L87 61L79 52L72 49L61 50Z"/>
  <path fill="#174A31" d="M45 21L37 24L29 29L21 37L17 43L13 53L13 74L19 89L24 95L36 103L39 103L42 105L51 107L51 106L38 99L28 88L29 80L35 75L48 71L61 70L63 68L60 65L36 61L29 56L27 50L28 40L30 36L40 26L47 22Z"/>
  <path fill="#174A31" d="M37 39L33 43L33 50L37 54L46 54L49 51L50 48L49 43L43 38Z"/>
  <path fill="#2E858C" d="M91 70L89 68L73 68L66 75L48 78L41 81L39 83L39 87L44 92L59 99L66 104L69 104L76 100L86 89L91 77Z"/>
  <path fill="#2E858C" d="M45 105L45 107L48 108L54 108L55 107L47 103Z"/>
  <text x="111" y="78" fill="#174A31" font-family="'Public Sans', Arial, Helvetica, sans-serif" font-size="25.5" font-weight="700" letter-spacing="1.3">CORPOYARUMOS</text>
</svg>
